# xmcd
#
# Track frame offsets:
# 150
# 20259
# 37778
# 63094
# 78493
# 91439
# 106138
# 121074
# 144321
# 157512
# 170123
# 179680
# 194205
# 213058
# 232616
# 250824
# 263384
# 283493
#
# Disc length: 3954 seconds
#
# Revision: 0
# Processed by: cddbd v1.4PL0 Copyright (c) Steve Scherf et al.
# Submitted via: Audion 3.0.2 (http://www.panic.com/audion/)
#
DISCID=e40f7012
DTITLE=';l';l - al green
DYEAR=1900
DGENRE=
TTITLE0=';lk;lk;'l
TTITLE1=lkj;lkj
TTITLE2='l,
TTITLE3=;lkj;lkj;lkj;ljk
TTITLE4=;
TTITLE5=lkj
TTITLE6=;ml';lm;
TTITLE7=;lk;lk;l
TTITLE8=l;k';lk
TTITLE9=';lk';lk
TTITLE10=';lk;l
TTITLE11=';l';lk
TTITLE12=q';lk';lk
TTITLE13=';lk';lk
TTITLE14=';lk';';
TTITLE15=';jlk';lkq
TTITLE16=';lk';klq
TTITLE17=';lk';lk;l'kq'
EXTD=
EXTT0=
EXTT1=
EXTT2=
EXTT3=
EXTT4=
EXTT5=
EXTT6=
EXTT7=
EXTT8=
EXTT9=
EXTT10=
EXTT11=
EXTT12=
EXTT13=
EXTT14=
EXTT15=
EXTT16=
EXTT17=
PLAYORDER=
